<svg width="64" height="64" viewBox="0 0 64 64" fill="none" xmlns="http://www.w3.org/2000/svg">
<g clip-path="url(#clip0)">
<path d="M63.9996 41.7004L63.0996 39.2004C62.3996 39.5004 61.5996 39.1004 61.3996 38.4004C61.0996 37.7004 61.4996 36.9004 62.1996 36.7004L61.1996 34.0004C60.4996 34.3004 59.6996 33.9004 59.4996 33.2004C59.1996 32.5004 59.5996 31.7004 60.2996 31.5004L59.3996 29.0004C58.6996 29.3004 57.8996 28.9004 57.6996 28.2004C57.3996 27.5004 57.7996 26.7004 58.4996 26.5004L57.5996 24.0004C56.8996 24.2004 56.1996 23.9004 55.8996 23.3004C53.1996 23.6004 50.4996 22.1004 49.5996 19.4004L12.1996 32.8004C13.2996 35.9004 11.6996 39.3004 8.59961 40.5004L15.8996 60.4004C18.9996 59.3004 22.3996 60.9004 23.5996 64.0004L60.8996 50.4004C59.8996 47.7004 60.9996 44.8004 63.2996 43.3004C62.9996 42.7004 63.2996 41.9004 63.9996 41.7004Z" fill="#FBBF67"/>
<path d="M56.5999 46.6997L24.3999 58.3997C22.6999 58.9997 20.7999 58.0997 20.0999 56.3997L14.3999 40.6997C13.7999 38.9997 14.6999 37.0997 16.3999 36.3997L48.5999 24.6997C50.2999 24.0997 52.1999 24.9997 52.8999 26.6997L58.5999 42.3997C59.1999 44.1997 58.2999 46.0997 56.5999 46.6997ZM16.9999 38.0997C16.0999 38.3997 15.6999 39.3997 15.9999 40.1997L21.6999 55.8997C21.9999 56.7997 22.9999 57.1997 23.7999 56.8997L55.9999 45.1997C56.8999 44.8997 57.2999 43.8997 56.9999 43.0997L51.2999 27.3997C50.9999 26.4997 49.9999 26.0997 49.1999 26.3997L16.9999 38.0997Z" fill="#FF5555"/>
<path d="M30.8996 43.1004L29.9996 43.4004C29.8996 43.4004 29.7996 43.4004 29.7996 43.3004L29.2996 42.3004L28.6996 42.5004L28.9996 43.6004C28.9996 43.7004 28.9996 43.8004 28.8996 43.8004L27.9996 44.1004C27.8996 44.1004 27.8996 44.1004 27.7996 44.0004L26.0996 37.1004C26.0996 37.0004 26.0996 36.9004 26.1996 36.9004L27.4996 36.4004C27.5996 36.4004 27.6996 36.4004 27.6996 36.5004L30.8996 42.9004C30.9996 43.0004 30.9996 43.1004 30.8996 43.1004ZM28.7996 41.2004L27.5996 38.6004H27.4996L28.2996 41.3004L28.7996 41.2004Z" fill="#89664C"/>
<path d="M32.8 37.1001L34 40.5001C34.2 41.2001 33.9 41.9001 33.2 42.2001L31.7 42.7001C31.6 42.7001 31.5 42.7001 31.5 42.6001L29.5 37.0001C29.5 36.9001 29.5 36.8001 29.6 36.8001L31.1 36.3001C31.8 36.1001 32.6 36.4001 32.8 37.1001ZM31.7 37.6001C31.7 37.5001 31.5 37.4001 31.4 37.4001L31 37.5001L32.4 41.3001L32.7 41.2001C32.8 41.2001 32.9 41.0001 32.8 40.9001L31.7 37.6001Z" fill="#89664C"/>
<path d="M36.9992 34.3002L39.0992 39.9002C39.0992 40.0002 39.0992 40.1002 38.9992 40.1002L38.0992 40.4002C37.9992 40.4002 37.8992 40.4002 37.8992 40.3002L36.8992 37.7002L37.0992 40.3002C37.0992 40.4002 36.9992 40.4002 36.9992 40.3002L35.4992 38.2002L36.4992 40.8002C36.4992 40.9002 36.4992 41.0002 36.3992 41.0002L35.4992 41.3002C35.3992 41.3002 35.2992 41.3002 35.2992 41.2002L33.1992 35.6002C33.1992 35.5002 33.1992 35.4002 33.2992 35.4002L34.0992 35.1002C34.1992 35.1002 34.2992 35.1002 34.2992 35.2002L36.1992 38.0002L35.8992 34.7002C35.8992 34.6002 35.8992 34.5002 35.9992 34.5002L36.7992 34.2002C36.8992 34.2002 36.9992 34.2002 36.9992 34.3002Z" fill="#89664C"/>
<path d="M41.0994 39.2C41.0994 39.3 41.0994 39.4 40.9994 39.4L40.0994 39.7C39.9994 39.7 39.8994 39.7 39.8994 39.6L37.8994 34C37.8994 33.9 37.8994 33.8 37.9994 33.8L38.8994 33.5C38.9994 33.5 39.0994 33.5 39.0994 33.6L41.0994 39.2Z" fill="#89664C"/>
<path d="M42.5998 32.3002L42.8998 33.2002C42.8998 33.3002 42.8998 33.4002 42.7998 33.4002L42.0998 33.7002L43.7998 38.3002C43.7998 38.4002 43.7998 38.5002 43.6998 38.5002L42.7998 38.8002C42.6998 38.8002 42.5998 38.8002 42.5998 38.7002L40.9998 34.0002L40.2998 34.3002C40.1998 34.3002 40.0998 34.3002 40.0998 34.2002L39.7998 33.3002C39.7998 33.2002 39.7998 33.1002 39.8998 33.1002L42.3998 32.2002C42.4998 32.2002 42.5998 32.2002 42.5998 32.3002Z" fill="#89664C"/>
<path d="M35.6993 50.3005L35.2993 50.4005C34.5993 50.6005 33.8993 50.3005 33.5993 49.6005L31.9993 45.0005C31.7993 44.3005 32.0993 43.6005 32.7993 43.3005L33.1993 43.2005C33.8993 43.0005 34.5993 43.3005 34.8993 44.0005L36.5993 48.6005C36.7993 49.2005 36.3993 50.0005 35.6993 50.3005ZM33.3993 44.3005C33.1993 44.4005 33.0993 44.5005 33.1993 44.7005L34.7993 49.2005C34.7993 49.3005 34.9993 49.4005 35.0993 49.3005H35.1993C35.2993 49.3005 35.3993 49.1005 35.3993 49.0005L33.7993 44.5005C33.6993 44.3005 33.4993 44.3005 33.3993 44.3005Z" fill="#89664C"/>
<path d="M38.7996 42.5004L40.8996 48.1004C40.8996 48.2004 40.8996 48.3004 40.7996 48.3004L40.1996 48.5004C40.0996 48.5004 39.9996 48.5004 39.9996 48.4004L37.9996 46.2004L38.8996 48.8004C38.8996 48.9004 38.8996 49.0004 38.7996 49.0004L37.8996 49.3004C37.7996 49.3004 37.6996 49.3004 37.6996 49.2004L35.5996 43.6004C35.5996 43.5004 35.5996 43.4004 35.6996 43.4004L36.3996 43.2004C36.4996 43.2004 36.5996 43.2004 36.5996 43.3004L38.6996 45.8004L37.6996 42.9004C37.6996 42.8004 37.6996 42.7004 37.7996 42.7004L38.6996 42.4004C38.6996 42.4004 38.7996 42.4004 38.7996 42.5004Z" fill="#89664C"/>
<path d="M43.7996 46.0998L44.0996 46.9998C44.0996 47.0998 44.0996 47.1998 43.9996 47.1998L41.8996 47.9998C41.7996 47.9998 41.6996 47.9998 41.6996 47.8998L39.5996 42.2998C39.5996 42.1998 39.5996 42.0998 39.6996 42.0998L41.7996 41.2998C41.8996 41.2998 41.9996 41.2998 41.9996 41.3998L42.2996 42.2998C42.2996 42.3998 42.2996 42.4998 42.1996 42.4998L41.0996 42.8998L41.4996 43.9998L42.4996 43.5998C42.5996 43.5998 42.6996 43.5998 42.6996 43.6998L42.9996 44.5998C42.9996 44.6998 42.9996 44.7998 42.8996 44.7998L41.8996 45.1998L42.3996 46.4998L43.4996 46.0998C43.6996 45.9998 43.7996 45.9998 43.7996 46.0998Z" fill="#89664C"/>
<g opacity="0.5">
<path opacity="0.5" d="M25.3996 54.7998L55.7996 29.2998C54.2996 27.4998 54.0996 25.1998 54.8996 23.1998C52.4996 23.0998 50.3996 21.5998 49.4996 19.2998L12.1996 32.7998C13.2996 35.8998 11.6996 39.2998 8.59961 40.4998L10.8996 46.8998L16.8996 54.0998C19.4996 51.8998 23.1996 52.2998 25.3996 54.7998Z" fill="#947151"/>
<path opacity="0.5" d="M25.3996 54.7998L55.7996 29.2998C54.2996 27.4998 54.0996 25.1998 54.8996 23.1998C52.4996 23.0998 50.3996 21.5998 49.4996 19.2998L12.1996 32.7998C13.2996 35.8998 11.6996 39.2998 8.59961 40.4998L10.8996 46.8998L16.8996 54.0998C19.4996 51.8998 23.1996 52.2998 25.3996 54.7998Z" fill="#947151"/>
</g>
<path d="M52.5 16.1L50.8 14C50.2 14.5 49.4 14.4 48.9 13.8C48.4 13.2 48.5 12.4 49.1 11.9L47.4 9.8C46.8 10.3 46 10.2 45.5 9.6C45 9 45.1 8.2 45.7 7.7L44 5.6C43.4 6.1 42.6 6 42.1 5.4C41.4 5 41.5 4.2 42 3.7L40.3 1.6C39.7 2.1 38.9 2 38.4 1.5C36 2.7 33 2.2 31.1 0L0.7 25.5C2.9 28.1 2.5 31.9 0 34L13.6 50.3C16.1 48.2 19.9 48.5 22 51L52.4 25.5C50.6 23.3 50.6 20.2 52.2 18C51.9 17.4 52 16.6 52.5 16.1Z" fill="#FBBF67"/>
<path d="M47.2004 23.3999L21.0004 45.3999C19.6004 46.5999 17.5004 46.3999 16.3004 44.9999L5.60044 32.1999C4.40044 30.7999 4.60044 28.6999 6.00044 27.4999L32.2004 5.49986C33.6004 4.29986 35.7004 4.49986 36.9004 5.89986L47.6004 18.6999C48.8004 20.0999 48.6004 22.1999 47.2004 23.3999ZM7.10044 28.7999C6.40044 29.3999 6.30044 30.3999 6.90044 31.0999L17.6004 43.9999C18.2004 44.6999 19.2004 44.7999 19.9004 44.1999L46.1004 22.1999C46.8004 21.5999 46.9004 20.5999 46.3004 19.8999L35.6004 6.99986C35.0004 6.29986 34.0004 6.19986 33.3004 6.79986L7.10044 28.7999Z" fill="#FF5555"/>
<path d="M21.9 28.8L21.2 29.4C21.1 29.5 21 29.4 21 29.4L20.2 28.6L19.6 29L20.3 29.9V30.1L19.6 30.7C19.5 30.8 19.5 30.7 19.4 30.7L15.5 24.8V24.6L16.6 23.7C16.7 23.6 16.8 23.6 16.8 23.7L21.9 28.6V28.8ZM19.3 27.7L17.3 25.6L17.2 25.7L18.9 28L19.3 27.7Z" fill="#89664C"/>
<path d="M21.5999 22.4995L23.8999 25.2995C24.3999 25.8995 24.2999 26.6995 23.6999 27.1995L22.4999 28.1995C22.3999 28.2995 22.2999 28.1995 22.2999 28.1995L18.3999 23.5995C18.2999 23.4995 18.3999 23.3995 18.3999 23.3995L19.5999 22.3995C20.2999 21.8995 21.0999 21.8995 21.5999 22.4995ZM20.6999 23.2995C20.5999 23.1995 20.3999 23.1995 20.2999 23.2995L19.9999 23.4995L22.5999 26.5995L22.8999 26.3995C22.9999 26.2995 22.9999 26.1995 22.8999 25.9995L20.6999 23.2995Z" fill="#89664C"/>
<path d="M24.5995 18.3998L28.4995 22.9998C28.5995 23.0998 28.4995 23.1998 28.4995 23.1998L27.6995 23.7998C27.5995 23.8998 27.4995 23.7998 27.4995 23.7998L25.6995 21.6998L26.7995 24.0998C26.7995 24.1998 26.7995 24.1998 26.6995 24.1998L24.5995 22.6998L26.3995 24.7998C26.4995 24.8998 26.3995 24.9998 26.3995 24.9998L25.5995 25.5998C25.4995 25.6998 25.3995 25.5998 25.3995 25.5998L21.4995 20.9998C21.3995 20.8998 21.4995 20.7998 21.4995 20.7998L22.1995 20.1998C22.2995 20.0998 22.3995 20.1998 22.3995 20.1998L25.0995 22.0998L23.6995 19.0998V18.8998L24.3995 18.2998C24.4995 18.3998 24.5995 18.3998 24.5995 18.3998Z" fill="#89664C"/>
<path d="M30.1999 21.5995C30.2999 21.6995 30.1999 21.7995 30.1999 21.7995L29.4999 22.3995C29.3999 22.4995 29.2999 22.3995 29.2999 22.3995L25.3999 17.7995C25.2999 17.6995 25.3999 17.5995 25.3999 17.5995L26.0999 16.9995C26.1999 16.8995 26.2999 16.9995 26.2999 16.9995L30.1999 21.5995Z" fill="#89664C"/>
<path d="M29.1999 14.5996L29.7999 15.2996C29.8999 15.3996 29.7999 15.4996 29.7999 15.4996L29.1999 15.9996L32.3999 19.7996C32.4999 19.8996 32.3999 19.9996 32.3999 19.9996L31.6999 20.5996H31.4999L28.2999 16.7996L27.6999 17.2996C27.5999 17.3996 27.4999 17.2996 27.4999 17.2996L26.8999 16.5996C26.7999 16.4996 26.8999 16.3996 26.8999 16.3996L28.9999 14.6996C28.9999 14.5996 29.0999 14.5996 29.1999 14.5996Z" fill="#89664C"/>
<path d="M28.9004 33.8994L28.6004 34.1994C28.0004 34.6994 27.2004 34.5994 26.7004 33.9994L23.6004 30.2994C23.1004 29.6994 23.2004 28.8994 23.8004 28.3994L24.1004 28.0994C24.7004 27.5994 25.5004 27.6994 26.0004 28.2994L29.0004 31.9994C29.5004 32.5994 29.4004 33.3994 28.9004 33.8994ZM24.6004 29.0994C24.4004 29.1994 24.4004 29.3994 24.5004 29.4994L27.6004 33.0994C27.7004 33.1994 27.8004 33.1994 28.0004 33.0994L28.1004 32.9994C28.2004 32.8994 28.2004 32.6994 28.1004 32.5994L25.0004 29.0994C24.9004 28.9994 24.7004 28.9994 24.6004 29.0994Z" fill="#89664C"/>
<path d="M29.0997 25.5L32.9997 30.1C33.0997 30.2 32.9997 30.3 32.9997 30.3L32.4997 30.7C32.3997 30.8 32.2997 30.8 32.2997 30.7L29.6997 29.3L31.4997 31.4C31.5997 31.5 31.4997 31.6 31.4997 31.6L30.7997 32.2C30.6997 32.3 30.5997 32.2 30.5997 32.2L26.6997 27.6C26.5997 27.5 26.6997 27.4 26.6997 27.4L27.1997 27C27.2997 26.9 27.3997 26.9 27.3997 27L30.1997 28.6L28.1997 26.3C28.0997 26.2 28.1997 26.1 28.1997 26.1L28.8997 25.5H29.0997Z" fill="#89664C"/>
<path d="M35.0003 27.1993L35.6003 27.8993C35.7003 27.9993 35.6003 28.0993 35.6003 28.0993L33.9003 29.5993C33.8003 29.6993 33.7003 29.5993 33.7003 29.5993L29.8003 24.9993C29.7003 24.8993 29.8003 24.7993 29.8003 24.7993L31.5003 23.2993C31.6003 23.1993 31.7003 23.2993 31.7003 23.2993L32.3003 23.9993C32.4003 24.0993 32.3003 24.1993 32.3003 24.1993L31.4003 24.9993L32.2003 25.8993L33.0003 25.1993C33.1003 25.0993 33.2003 25.1993 33.2003 25.1993L33.8003 25.8993C33.9003 25.9993 33.8003 26.0993 33.8003 26.0993L33.0003 26.7993L33.9003 27.8993L34.8003 27.0993C34.9003 27.0993 35.0003 27.0993 35.0003 27.1993Z" fill="#89664C"/>
</g>
<defs>
<clipPath id="clip0">
<rect width="64" height="64" fill="white"/>
</clipPath>
</defs>
</svg>
